<?xml version="1.0"?>
<svg xmlns="http://www.w3.org/2000/svg" height="512px" viewBox="1 0 511.99975 511" width="512px"><g><path d="m500.949219 393.839844-73.707031-73.707032c17.457031-34.332031 17.667968-75.25.617187-109.734374v-175.910157c0-18.742187-15.246094-33.988281-33.988281-33.988281h-265.914063c-18.742187 0-33.988281 15.246094-33.988281 33.988281v29.992188h-59.980469c-18.742187 0-33.988281 15.246093-33.988281 33.988281v379.875c0 18.742188 15.246094 33.988281 33.988281 33.988281h295.90625c18.742188 0 33.988281-15.246093 33.988281-33.988281v-29.988281h29.988282c14.773437 0 27.367187-9.476563 32.042968-22.664063l21.589844 21.589844c7.140625 7.140625 16.628906 11.070312 26.722656 11.070312s19.585938-3.933593 26.722657-11.070312c14.734375-14.734375 14.734375-38.707031 0-53.441406zm-386.984375-359.351563c0-7.71875 6.277344-13.996093 13.992187-13.996093h265.914063c7.71875 0 13.996094 6.277343 13.996094 13.996093v146.980469c-1.015626-1.09375-2.046876-2.175781-3.113282-3.242188-12.039062-12.035156-25.984375-21.027343-40.871094-26.984374v-52.773438c0-18.742188-15.246093-33.988281-33.988281-33.988281h-215.929687zm-.507813 29.992188h-.136719c.050782-.128907.09375-.117188.136719 0zm-18.847656 0h-.128906c.042969-.109375.085937-.125.128906 0zm249.277344 413.863281c0 7.71875-6.277344 13.996094-13.992188 13.996094h-295.90625c-7.71875 0-13.996093-6.277344-13.996093-13.996094v-379.875c0-7.71875 6.277343-13.996094 13.996093-13.996094h295.90625c7.714844 0 13.992188 6.277344 13.992188 13.996094v46.703125c-39.15625-8.3125-81.636719 2.699219-111.992188 33.054687-8.515625 8.515626-15.503906 17.988282-20.976562 28.074219h-146.9375c-5.523438 0-9.996094 4.472657-9.996094 9.996094 0 5.519531 4.472656 9.996094 9.996094 9.996094h138.308593c-5.535156 16.839843-7.324218 34.648437-5.363281 52.117187h-132.945312c-5.523438 0-9.996094 4.476563-9.996094 9.996094s4.472656 9.996094 9.996094 9.996094h136.890625c5.511718 19.304687 15.847656 37.511718 31.023437 52.6875 23.828125 23.828125 55.128907 35.742187 86.429688 35.742187 8.570312 0 17.144531-.902343 25.5625-2.6875zm-97.855469-141.394531c-39.863281-39.863281-39.863281-104.722657 0-144.585938 19.929688-19.929687 46.113281-29.894531 72.292969-29.894531 26.179687 0 52.363281 9.964844 72.292969 29.894531 39.863281 39.863281 39.863281 104.726563 0 144.585938-39.863282 39.863281-104.722657 39.863281-144.585938 0zm161.835938 77.417969c0 7.714843-6.277344 13.992187-13.996094 13.992187h-29.988282v-50.285156c3.355469-1.34375 6.664063-2.84375 9.914063-4.496094l34.070313 34.066406zm78.945312 18.777343c-3.363281 3.363281-7.832031 5.214844-12.585938 5.214844-4.753906 0-9.222656-1.851563-12.582031-5.214844l-70.394531-70.390625c4.710938-3.507812 9.230469-7.390625 13.503906-11.664062 4.273438-4.273438 8.160156-8.792969 11.667969-13.503906l70.390625 70.390624c6.9375 6.9375 6.9375 18.230469 0 25.167969zm0 0" data-original="#000000" class="active-path" data-old_color="#000000" fill="#21E4C1"/><path d="m356.816406 209.359375c-3.902344-3.902344-10.234375-3.902344-14.136718 0l-35.046876 35.046875-13.664062-13.664062c-3.90625-3.902344-10.234375-3.902344-14.136719 0l-27.171875 27.167968c-1.875 1.875-2.929687 4.417969-2.929687 7.070313 0 2.652343 1.054687 5.191406 2.929687 7.070312l47.90625 47.902344c1.871094 1.875 4.414063 2.929687 7.066406 2.929687 2.652344 0 5.195313-1.054687 7.070313-2.929687l69.285156-69.285156c1.875-1.875 2.925781-4.417969 2.925781-7.066407 0-2.652343-1.050781-5.195312-2.925781-7.070312zm-49.183594 89.390625-33.765624-33.769531 13.03125-13.03125 13.667968 13.664062c3.902344 3.902344 10.230469 3.902344 14.136719 0l35.046875-35.046875 13.03125 13.035156zm0 0" data-original="#000000" class="active-path" data-old_color="#000000" fill="#21E4C1"/><path d="m63.980469 370.246094h139.875c5.523437 0 9.996093-4.476563 9.996093-9.996094s-4.472656-9.996094-9.996093-9.996094h-139.875c-5.523438 0-9.996094 4.476563-9.996094 9.996094s4.472656 9.996094 9.996094 9.996094zm0 0" data-original="#000000" class="active-path" data-old_color="#000000" fill="#21E4C1"/><path d="m256.046875 422.363281c-2.628906 0-5.207031 1.070313-7.066406 2.929688-1.871094 1.859375-2.929688 4.4375-2.929688 7.066406s1.058594 5.207031 2.929688 7.066406c1.859375 1.859375 4.425781 2.929688 7.066406 2.929688 2.628906 0 5.207031-1.070313 7.066406-2.929688s2.929688-4.4375 2.929688-7.066406-1.070313-5.207031-2.929688-7.066406-4.4375-2.929688-7.066406-2.929688zm0 0" data-original="#000000" class="active-path" data-old_color="#000000" fill="#21E4C1"/><path d="m215.867188 422.363281h-151.886719c-5.523438 0-9.996094 4.476563-9.996094 9.996094s4.472656 9.996094 9.996094 9.996094h151.886719c5.523437 0 10-4.476563 10-9.996094s-4.476563-9.996094-10-9.996094zm0 0" data-original="#000000" class="active-path" data-old_color="#000000" fill="#21E4C1"/><path d="m63.980469 154.449219h151.625c5.523437 0 10-4.476563 10-9.996094s-4.476563-9.996094-10-9.996094h-151.625c-5.523438 0-9.996094 4.476563-9.996094 9.996094s4.472656 9.996094 9.996094 9.996094zm0 0" data-original="#000000" class="active-path" data-old_color="#000000" fill="#21E4C1"/></g> </svg>
