<svg width="163" height="40" xmlns="http://www.w3.org/2000/svg"><g id="Page-1" stroke="none" stroke-width="1" fill="none" fill-rule="evenodd"><g id="02---Menu-Hover-Borrower" transform="translate(-47 -731)" fill="#9C9C9C"><g id="Press-Strip" transform="translate(47 727)"><g id="logo/press/bloomberg" transform="translate(0 4)"><g id="Bloomberg"><path d="M.16.302h9.134c4.392 0 5.327 2.764 5.327 4.668 0 1.877-.818 2.894-2.056 3.65 1.495.573 2.897 1.904 2.897 4.641 0 3.73-2.897 5.659-5.84 5.659H.158V.302zm5.139 7.25h2.71c1.075 0 1.753-.34 1.753-1.54 0-.939-.702-1.277-1.753-1.277H5.3V7.55zm0 6.935h3.014c1.075 0 2.01-.339 2.01-1.773 0-1.095-.585-1.695-1.8-1.695H5.3v3.468z" id="Fill-1"/><path id="Fill-2" d="M15.917.302h4.626V18.92h-4.626z"/><path d="M28.168 19.259c-4.556 0-6.612-3.364-6.612-7.119s2.056-7.093 6.612-7.093 6.611 3.338 6.611 7.093-2.055 7.119-6.611 7.119zm0-10.456c-1.752 0-1.986 1.903-1.986 3.337 0 1.434.234 3.364 1.986 3.364s1.986-1.93 1.986-3.364-.234-3.337-1.986-3.337z" id="Fill-3"/><path d="M42.473 19.259c-4.556 0-6.612-3.364-6.612-7.119s2.056-7.093 6.612-7.093 6.612 3.338 6.612 7.093-2.056 7.119-6.612 7.119zm0-10.456c-1.753 0-1.986 1.903-1.986 3.337 0 1.434.233 3.364 1.986 3.364 1.752 0 1.986-1.93 1.986-3.364s-.234-3.337-1.986-3.337z" id="Fill-4"/><path d="M50.694 5.387h4.463v1.799h.046c.935-1.565 2.29-2.139 3.972-2.139 1.308 0 2.71.757 3.271 2.113.187-.157 1.121-2.113 4.135-2.113 3.108 0 4.159 2.4 4.159 4.59v9.283h-4.626v-7.327c0-1.278-.117-2.426-1.519-2.426-1.168 0-1.565 1.017-1.565 2.426v7.327h-4.626v-7.327c0-1.278-.116-2.426-1.518-2.426-1.169 0-1.566 1.017-1.566 2.426v7.327h-4.626V5.387" id="Fill-5"/><path d="M72.442.302h4.626v6.571h.046c.702-1.147 1.94-1.826 3.319-1.826 4.064 0 5.163 3.86 5.163 7.041 0 3.39-1.66 7.17-5.094 7.17-2.266 0-2.967-.964-3.551-1.825h-.047v1.487h-4.462V.302zm6.495 8.501c-1.659 0-2.033 1.747-2.033 3.337 0 1.617.374 3.364 2.033 3.364 1.659 0 2.033-1.747 2.033-3.364 0-1.59-.374-3.337-2.033-3.337z" id="Fill-6"/><path d="M90.989 13.313c.117 1.539.91 2.634 2.36 2.634.747 0 1.565-.313 1.939-.965h4.322c-.935 2.921-3.481 4.277-6.238 4.277-3.878 0-6.8-2.555-6.8-7.066 0-3.938 2.571-7.146 6.403-7.146 4.812 0 6.892 2.999 6.892 8.266H90.99zm4.439-2.686c0-1.25-.842-2.268-2.033-2.268-1.378 0-2.173.808-2.383 2.268h4.416z" id="Fill-7"/><path d="M100.853 5.387h4.44V7.55h.046c.748-1.617 1.73-2.504 3.412-2.504.467 0 .91.079 1.354.21v4.562c-.466-.182-.887-.338-1.822-.338-1.822 0-2.803 1.199-2.803 4.093v5.346h-4.627V5.387" id="Fill-8"/><path d="M123.721 17.173c0 2.686-.63 6.466-6.308 6.466-2.873 0-5.911-.86-6.331-4.51h4.579c.046.13.163.312.257.469.28.47.77.99 1.355.99 1.495 0 1.822-1.981 1.822-3.102v-1.252h-.047c-.747 1.2-1.869 1.877-3.247 1.877-3.574 0-5.187-2.972-5.187-6.597 0-3.52 1.8-6.467 5.257-6.467 1.356 0 2.64.6 3.177 1.983h.047V5.387h4.626v11.786zM117.32 14.8c1.706 0 1.893-1.825 1.893-3.338 0-1.486-.654-2.659-2.01-2.659-1.308 0-1.962 1.251-1.962 2.685 0 1.539.42 3.312 2.08 3.312z" id="Fill-9"/><path d="M.16 20.44h9.134c4.392 0 5.327 2.764 5.327 4.668 0 1.878-.818 2.894-2.056 3.65 1.495.575 2.897 1.904 2.897 4.643 0 3.728-2.897 5.658-5.84 5.658H.158V20.44zm5.139 7.25h2.71c1.075 0 1.753-.339 1.753-1.539 0-.938-.702-1.278-1.753-1.278H5.3v2.817zm0 6.936h3.014c1.075 0 2.01-.34 2.01-1.773 0-1.095-.585-1.695-1.8-1.695H5.3v3.468z" id="Fill-10"/><path d="M28.534 39.059h-4.462v-1.721h-.047c-.865 1.356-2.103 2.06-3.949 2.06-2.173 0-4.159-1.487-4.159-4.59v-9.283h4.626v7.093c0 1.564.165 2.66 1.52 2.66.794 0 1.845-.443 1.845-2.608v-7.145h4.626V39.06" id="Fill-11"/><path d="M36.805 29.463a1.342 1.342 0 0 0-.538-1.017 1.508 1.508 0 0 0-1.028-.391c-.654 0-1.401.156-1.401 1.043 0 .39.28.573.537.704.771.365 2.523.47 4.065 1.042 1.542.549 2.897 1.566 2.897 3.782 0 3.755-3.224 4.772-6.168 4.772-2.85 0-5.98-1.278-6.051-4.772h4.416c.023.47.21.86.56 1.2.234.234.678.39 1.239.39.607 0 1.565-.26 1.565-1.043 0-.782-.397-1.017-2.546-1.434-3.529-.678-4.954-1.93-4.954-4.25 0-3.416 3.295-4.302 5.724-4.302 2.617 0 5.771.808 5.888 4.276h-4.205" id="Fill-12"/><path d="M42.473 21.089h4.626v3.624h-4.626V21.09zm0 4.436h4.626V39.06h-4.626V25.525z" id="Fill-13"/><path d="M48.325 25.525h4.463v1.722h.046c.865-1.357 2.103-2.06 3.949-2.06 2.173 0 4.158 1.486 4.158 4.59v9.282h-4.626v-7.092c0-1.566-.163-2.66-1.518-2.66-.795 0-1.846.443-1.846 2.607v7.145h-4.626V25.525" id="Fill-14"/><path d="M66.657 33.453c.117 1.537.911 2.633 2.36 2.633.748 0 1.566-.313 1.939-.965h4.323c-.935 2.92-3.482 4.277-6.239 4.277-3.878 0-6.798-2.556-6.798-7.067 0-3.937 2.57-7.144 6.402-7.144 4.812 0 6.891 2.998 6.891 8.266h-8.878zm4.44-2.686c0-1.252-.842-2.27-2.033-2.27-1.378 0-2.173.81-2.383 2.27h4.416z" id="Fill-15"/><path d="M84.12 29.463a1.343 1.343 0 0 0-.536-1.017 1.51 1.51 0 0 0-1.029-.391c-.654 0-1.402.156-1.402 1.043 0 .39.28.573.538.704.77.365 2.523.47 4.065 1.042 1.542.549 2.897 1.566 2.897 3.782 0 3.755-3.224 4.772-6.168 4.772-2.85 0-5.981-1.278-6.051-4.772h4.415c.024.47.21.86.561 1.2.234.234.678.39 1.238.39.608 0 1.566-.26 1.566-1.043 0-.782-.397-1.017-2.547-1.434-3.527-.678-4.953-1.93-4.953-4.25 0-3.416 3.295-4.302 5.724-4.302 2.617 0 5.772.808 5.888 4.276h-4.205" id="Fill-16"/><path d="M96.847 29.463a1.342 1.342 0 0 0-.538-1.017 1.508 1.508 0 0 0-1.028-.391c-.653 0-1.401.156-1.401 1.043 0 .39.28.573.538.704.77.365 2.522.47 4.064 1.042 1.542.549 2.897 1.566 2.897 3.782 0 3.755-3.223 4.772-6.167 4.772-2.85 0-5.982-1.278-6.052-4.772h4.416c.024.47.21.86.56 1.2.234.234.678.39 1.239.39.608 0 1.565-.26 1.565-1.043 0-.782-.397-1.017-2.546-1.434-3.528-.678-4.953-1.93-4.953-4.25 0-3.416 3.294-4.302 5.724-4.302 2.617 0 5.77.808 5.888 4.276h-4.206" id="Fill-17"/><path id="Fill-18" d="M118.248 39.059h-4.743l-1.752-8.318h-.047l-1.799 8.318h-4.742l-3.786-13.534h4.813l1.8 8.37h.046l1.542-8.37h4.322l1.613 8.37h.093l1.682-8.37h4.813l-3.855 13.534"/><path d="M125.455 33.453c.116 1.537.91 2.633 2.36 2.633.746 0 1.564-.313 1.938-.965h4.322c-.934 2.92-3.481 4.277-6.238 4.277-3.878 0-6.799-2.556-6.799-7.067 0-3.937 2.57-7.144 6.402-7.144 4.813 0 6.893 2.998 6.893 8.266h-8.878zm4.438-2.686c0-1.252-.841-2.27-2.032-2.27-1.379 0-2.173.81-2.383 2.27h4.415z" id="Fill-19"/><path d="M139.518 33.453c.116 1.537.91 2.633 2.36 2.633.747 0 1.564-.313 1.938-.965h4.322c-.934 2.92-3.48 4.277-6.238 4.277-3.877 0-6.798-2.556-6.798-7.067 0-3.937 2.57-7.144 6.401-7.144 4.813 0 6.893 2.998 6.893 8.266h-8.878zm4.439-2.686c0-1.252-.842-2.27-2.033-2.27-1.379 0-2.173.81-2.383 2.27h4.416z" id="Fill-20"/><path id="Fill-21" d="M149.242 20.44h4.626v8.997l2.944-3.912h5.234l-4.322 5.111 5 8.423h-5.561l-2.477-4.903-.818.991v3.912h-4.626V20.44"/></g></g></g></g></g></svg>