<?xml version="1.0"?>
<svg xmlns="http://www.w3.org/2000/svg" xmlns:xlink="http://www.w3.org/1999/xlink" version="1.1" id="Capa_1" x="0px" y="0px" viewBox="0 0 490 490" style="enable-background:new 0 0 490 490;" xml:space="preserve" width="512px" height="512px" class=""><g><g>
	<path d="M38.281,490H106.5c21.114,0,38.281-17.167,38.281-38.281v-69.13c0-21.115-17.167-38.281-38.281-38.281H80.047V286.99   h160.258v57.317h-29.399c-21.115,0-38.281,17.167-38.281,38.281v69.13c0,21.115,17.167,38.281,38.281,38.281h68.203   c21.115,0,38.281-17.167,38.281-38.281v-69.13c0-21.115-17.167-38.281-38.281-38.281h-23.492V286.99h154.351v57.317h-26.453   c-21.115,0-38.281,17.167-38.281,38.281v69.13c0,21.115,17.167,38.281,38.281,38.281h68.204C472.833,490,490,472.833,490,451.719   v-69.13c0-21.115-17.167-38.281-38.281-38.281h-26.438v-72.63H255.617v-57.83c55.205-5.263,98.499-51.082,98.499-106.659   C354.116,48.091,305.173,0,245,0S135.883,48.091,135.883,107.188c0,57.54,46.435,104.513,104.421,106.954v57.536H64.734v72.63   H38.281C17.167,344.307,0,361.474,0,382.588v69.13C0,472.833,17.167,490,38.281,490z M302.078,382.588v69.13   c0,12.666-10.303,22.969-22.969,22.969h-68.203c-12.666,0-22.969-10.303-22.969-22.969v-69.13   c0-12.666,10.303-22.969,22.969-22.969h68.203C291.775,359.619,302.078,369.923,302.078,382.588z M474.688,382.588v69.13   c0,12.666-10.303,22.969-22.969,22.969h-68.204c-12.666,0-22.969-10.303-22.969-22.969v-69.13   c0-12.666,10.303-22.969,22.969-22.969h68.204C464.384,359.619,474.688,369.923,474.688,382.588z M151.196,107.188   c0-50.663,42.079-91.875,93.804-91.875s93.804,41.212,93.804,91.875S296.724,199.063,245,199.063S151.196,157.85,151.196,107.188z    M15.313,382.588c0-12.666,10.303-22.969,22.969-22.969H106.5c12.666,0,22.969,10.303,22.969,22.969v69.13   c0,12.666-10.303,22.969-22.969,22.969H38.281c-12.666,0-22.969-10.303-22.969-22.969V382.588z" data-original="#000000" class="active-path" data-old_color="#000000" fill="#21E4C1"/>
	<path d="M250.14,180.623v-18.601c18.243-3.044,27.981-16.284,27.981-30.414c0-15.92-9.207-25.226-27.449-32.736   c-15.406-6.44-21.959-11.091-21.959-20.397c0-7.157,5.136-15.383,18.774-15.383c11.334,0,18.591,3.934,22.314,6.083l4.426-11.808   c-5.135-3.044-12.397-5.904-23.023-6.262V33.752h-10.98v18.069c-16.292,2.68-26.74,13.951-26.74,28.803   c0,15.562,11.156,23.794,29.222,30.946c13.101,5.367,20.009,11.449,20.009,21.293c0,10.196-8.503,17.531-21.072,17.531   c-9.923,0-19.129-3.402-25.505-7.694l-4.249,11.986c6.198,4.471,16.824,7.695,27.094,7.868v18.069H250.14z" data-original="#000000" class="active-path" data-old_color="#000000" fill="#21E4C1"/>
</g></g> </svg>
