<svg width="283" height="80" viewBox="0 0 283 80" fill="none" xmlns="http://www.w3.org/2000/svg">
<path d="M98.672 60V14.688H109.68V50.464H127.216V60H98.672ZM152.611 40.416C152.611 38.752 152.077 37.3227 151.011 36.128C149.987 34.9333 148.429 34.336 146.339 34.336C145.315 34.336 144.376 34.5067 143.523 34.848C142.669 35.1467 141.923 35.5733 141.283 36.128C140.643 36.6827 140.131 37.344 139.747 38.112C139.363 38.8373 139.149 39.6053 139.107 40.416H152.611ZM162.275 44.448C162.275 44.8747 162.275 45.3013 162.275 45.728C162.275 46.1547 162.253 46.56 162.211 46.944H139.107C139.192 47.84 139.448 48.6507 139.875 49.376C140.344 50.1013 140.92 50.7413 141.603 51.296C142.328 51.808 143.117 52.2133 143.971 52.512C144.867 52.8107 145.784 52.96 146.723 52.96C148.387 52.96 149.795 52.6613 150.947 52.064C152.099 51.424 153.037 50.6133 153.763 49.632L161.059 54.24C159.565 56.416 157.581 58.1013 155.107 59.296C152.675 60.448 149.837 61.024 146.595 61.024C144.205 61.024 141.944 60.6613 139.811 59.936C137.677 59.168 135.8 58.08 134.179 56.672C132.6 55.2213 131.341 53.4507 130.403 51.36C129.507 49.2693 129.059 46.88 129.059 44.192C129.059 41.5893 129.507 39.2427 130.403 37.152C131.299 35.0187 132.515 33.2267 134.051 31.776C135.587 30.2827 137.4 29.1307 139.491 28.32C141.581 27.5093 143.843 27.104 146.275 27.104C148.621 27.104 150.776 27.5093 152.739 28.32C154.701 29.088 156.387 30.2187 157.795 31.712C159.203 33.2053 160.291 35.0187 161.059 37.152C161.869 39.2853 162.275 41.7173 162.275 44.448ZM189.712 60V42.592C189.712 41.696 189.626 40.8427 189.456 40.032C189.328 39.2213 189.093 38.5173 188.752 37.92C188.41 37.28 187.92 36.7893 187.28 36.448C186.682 36.064 185.914 35.872 184.976 35.872C184.037 35.872 183.205 36.064 182.48 36.448C181.797 36.7893 181.221 37.28 180.752 37.92C180.282 38.56 179.92 39.3067 179.664 40.16C179.45 40.9707 179.344 41.824 179.344 42.72V60H168.784V28.128H178.96V32.544H179.088C179.472 31.8613 179.962 31.2 180.56 30.56C181.2 29.8773 181.925 29.3013 182.736 28.832C183.589 28.3627 184.506 27.9787 185.488 27.68C186.469 27.3813 187.514 27.232 188.624 27.232C190.757 27.232 192.57 27.616 194.064 28.384C195.557 29.152 196.752 30.1547 197.648 31.392C198.586 32.5867 199.248 33.9733 199.632 35.552C200.058 37.1307 200.272 38.7093 200.272 40.288V60H189.712ZM232.349 60V55.84H232.221C231.197 57.4613 229.725 58.72 227.805 59.616C225.928 60.4693 223.922 60.896 221.789 60.896C219.4 60.896 217.266 60.4267 215.389 59.488C213.512 58.5493 211.912 57.312 210.589 55.776C209.309 54.1973 208.328 52.384 207.645 50.336C206.962 48.288 206.621 46.1547 206.621 43.936C206.621 41.7173 206.962 39.6053 207.645 37.6C208.37 35.552 209.373 33.76 210.653 32.224C211.976 30.688 213.554 29.472 215.389 28.576C217.266 27.68 219.357 27.232 221.661 27.232C224.008 27.232 225.992 27.68 227.613 28.576C229.234 29.472 230.493 30.4533 231.389 31.52H231.517V11.616H242.013V60H232.349ZM231.965 44C231.965 42.976 231.773 41.9733 231.389 40.992C231.048 40.0107 230.536 39.136 229.853 38.368C229.213 37.6 228.424 36.9813 227.485 36.512C226.546 36.0427 225.48 35.808 224.285 35.808C223.048 35.808 221.96 36.0427 221.021 36.512C220.082 36.9813 219.293 37.6 218.653 38.368C218.013 39.0933 217.522 39.9467 217.181 40.928C216.882 41.9093 216.733 42.912 216.733 43.936C216.733 44.96 216.882 45.984 217.181 47.008C217.522 47.9893 218.013 48.864 218.653 49.632C219.293 50.4 220.082 51.0187 221.021 51.488C221.96 51.9573 223.048 52.192 224.285 52.192C225.48 52.192 226.546 51.9573 227.485 51.488C228.424 51.0187 229.213 50.4 229.853 49.632C230.536 48.864 231.048 47.9893 231.389 47.008C231.773 46.0267 231.965 45.024 231.965 44ZM268.33 64.8C267.69 66.464 266.965 67.936 266.154 69.216C265.386 70.5387 264.447 71.648 263.338 72.544C262.271 73.4827 260.991 74.1867 259.498 74.656C258.047 75.1253 256.319 75.36 254.314 75.36C253.333 75.36 252.309 75.296 251.242 75.168C250.218 75.04 249.322 74.8693 248.554 74.656L249.706 65.824C250.218 65.9947 250.773 66.1227 251.37 66.208C252.01 66.336 252.586 66.4 253.098 66.4C254.719 66.4 255.893 66.016 256.618 65.248C257.343 64.5227 257.962 63.4773 258.474 62.112L259.498 59.488L246.186 28.128H257.834L264.938 48.608H265.13L271.466 28.128H282.602L268.33 64.8Z" fill="#2A2A2A"/>
<path d="M36.2264 0V80L0 54.321L36.2264 0Z" fill="url(#paint0_linear)"/>
<path d="M43.7736 0V80L80 54.321L43.7736 0Z" fill="url(#paint1_linear)"/>
<defs>
<linearGradient id="paint0_linear" x1="18.1132" y1="0" x2="18.1132" y2="80" gradientUnits="userSpaceOnUse">
<stop stop-color="#21E4C1"/>
<stop offset="1" stop-color="#56A4EC"/>
</linearGradient>
<linearGradient id="paint1_linear" x1="61.8868" y1="0" x2="61.8868" y2="80" gradientUnits="userSpaceOnUse">
<stop stop-color="#21E4C1"/>
<stop offset="1" stop-color="#56A4EC"/>
</linearGradient>
</defs>
</svg>
