<?xml version="1.0"?>
<svg xmlns="http://www.w3.org/2000/svg" height="512px" viewBox="0 0 496.648 496" width="512px"><path d="m392.648438 184.269531h96c4.417968 0 8-3.578125 8-8v-151.949219c0-4.417968-3.582032-8-8-8h-96c-4.417969 0-8 3.582032-8 8v4.480469l-156.800782-27.417969c-13.488281-2.339843-27.367187-.78125-40 4.496094l-164.472656 71.792969c-16.898438 7.378906-26.304688 25.601563-22.539062 43.652344 3.765624 18.050781 19.675781 30.988281 38.117187 30.996093h150.550781c3.601563 4.734376 8.234375 8.589844 13.542969 11.269532-31.273437 16.738281-50.867187 49.257812-51.046875 84.730468-.019531 23.410157 8.574219 46.011719 24.144531 63.496094l-64.144531 14.703125v-6.152343c0-4.417969-3.582031-8-8-8h-96c-4.417969 0-8 3.582031-8 8v151.953124c0 4.417969 3.582031 8 8 8h96c4.417969 0 8-3.582031 8-8v-4.480468l156.800781 27.414062c13.488281 2.355469 27.371094.796875 40-4.496094l164.480469-71.789062c16.898438-7.382812 26.308594-25.605469 22.539062-43.65625-3.769531-18.054688-19.683593-30.988281-38.125-30.992188h-150.550781c-3.648437-4.808593-8.355469-8.710937-13.761719-11.402343 25.851563-13.820313 43.949219-38.714844 49.128907-67.5625 5.179687-28.851563-3.132813-58.488281-22.558594-80.4375l64.695313-14.832031v6.152343c-.007813 2.128907.832031 4.171875 2.332031 5.679688 1.5 1.507812 3.539062 2.351562 5.667969 2.351562zm8-151.949219h80v135.949219h-80zm-304.648438 432h-80v-135.953124h80zm202.566406-102.542968c1.953125 6.597656.996094 13.71875-2.621094 19.574218-6.203124 10.15625-19.109374 13.933594-29.808593 8.71875l-55.410157-27.199218c-3.976562-1.945313-8.777343-.300782-10.722656 3.675781-1.945312 3.976563-.300781 8.777344 3.675782 10.722656l55.410156 27.203125c18.070312 8.902344 39.949218 2.550782 50.445312-14.640625 5.402344-8.828125 7.171875-19.40625 4.9375-29.511719h143.199219c10.878906-.007812 20.265625 7.621094 22.484375 18.269532 2.21875 10.648437-3.339844 21.390625-13.316406 25.730468l-164.328125 71.71875c-9.769531 4.09375-20.511719 5.289063-30.945313 3.449219l-159.566406-27.898437v-108.65625l92.527344-21.214844c12.046875-2.746094 24.664062-1.386719 35.847656 3.863281l45.640625 21.472657c6.089844 2.894531 10.65625 8.25 12.550781 14.722656zm29.433594-113.457032c.136719 34.089844-21.472656 64.472657-53.71875 75.527344l-27.082031-12.746094c-14.421875-6.765624-30.695313-8.515624-46.230469-4.972656l-6.480469 1.480469c-16.882812-15.082031-26.519531-36.652344-26.488281-59.289063.15625-34.152343 21.867188-64.480468 54.144531-75.640624l27.320313 12.855468c9.511718 4.460938 19.890625 6.773438 30.398437 6.769532 5.332031 0 10.644531-.601563 15.839844-1.792969l5.992187-1.367188c16.730469 15.125 26.289063 36.621094 26.304688 59.175781zm-35.878906-73.402343c-12.046875 2.753906-24.667969 1.390625-35.847656-3.863281l-45.601563-21.472657c-6.089844-2.890625-10.65625-8.246093-12.550781-14.71875-1.953125-6.601562-.996094-13.722656 2.621094-19.574219 6.207031-10.15625 19.109374-13.929687 29.808593-8.722656l55.410157 27.199219c3.945312 1.835937 8.632812.179687 10.550781-3.726563 1.917969-3.910156.359375-8.632812-3.503907-10.632812l-55.40625-27.199219c-18.074218-8.875-39.933593-2.53125-50.449218 14.640625-5.40625 8.8125-7.1875 19.375-4.976563 29.472656h-143.222656c-10.878906.007813-20.265625-7.621093-22.484375-18.269531-2.21875-10.648437 3.339844-21.394531 13.316406-25.730469l164.351563-71.722656c9.769531-4.089844 20.507812-5.296875 30.941406-3.476562l159.570313 27.925781v108.65625zm0 0" fill="#21e4c1"/><path d="m248 216.320312c8.222656 0 16 4.800782 16 9.839844 0 4.417969 3.582031 8 8 8s8-3.582031 8-8c-1.132812-12.921875-11.128906-23.304687-24-24.921875v-.917969c0-4.417968-3.582031-8-8-8s-8 3.582032-8 8v1.039063c-12.488281 2.234375-21.800781 12.757813-22.503906 25.425781 0 16.535156 15 23.199219 27.054687 28.558594 11.203125 4.960938 17.945313 8.414062 17.945313 14.511719 0 5.664062-6.640625 10.464843-14.496094 10.464843-8.222656 0-16-4.800781-16-9.839843 0-4.417969-3.582031-8-8-8s-8 3.582031-8 8c1.132812 12.921875 11.128906 23.300781 24 24.917969v.921874c0 4.417969 3.582031 8 8 8s8-3.582031 8-8v-1.039062c12.484375-2.238281 21.796875-12.761719 22.496094-25.425781 0-16.9375-15.199219-23.703125-27.441406-29.128907-10.917969-4.863281-17.558594-8.222656-17.558594-13.941406 0-5.722656 6.648437-10.464844 14.503906-10.464844zm0 0" fill="#21e4c1"/></svg>
