<svg width="48" height="48" xmlns="http://www.w3.org/2000/svg"><g id="Page-1" stroke="none" stroke-width="1" fill="none" fill-rule="evenodd"><g id="02---Menu-Hover-Borrower" transform="translate(-687 -727)" fill="#9C9C9C"><g id="Press-Strip" transform="translate(47 727)"><g id="logo/press/nbc" transform="translate(640)"><g id="NBC"><path d="M22.731 43.593v-4.035h2.141c1.738.105 2.607.833 2.607 2.189 0 .634-.267 1.098-.801 1.391-.525.304-1.127.455-1.806.455h-2.14m0-6.792v-3.708h1.805c.495 0 .913.17 1.252.512.38.312.583.7.612 1.165 0 .558-.17 1.037-.51 1.435-.33.398-.761.596-1.295.596H22.73m3.67-6.664h-7.398V46.89H26.4c1.36-.104 2.471-.64 3.335-1.606.883-.976 1.325-2.135 1.325-3.481-.107-1.99-1.097-3.363-2.97-4.12 1.339-.825 2.009-2.1 2.009-3.822-.088-1.014-.47-1.862-1.15-2.544-.661-.673-1.51-1.066-2.549-1.18m-23.125-.724V46.89h3.7v-8.838L17.3 47.43V30.137h-3.801v8.27L3.276 29.413m37.09 0a10.2 10.2 0 0 0-4.587 1.265 8.999 8.999 0 0 0-3.364 3.069c-.844 1.278-1.296 2.713-1.354 4.305 0 1.705.412 3.244 1.238 4.618.786 1.373 1.893 2.472 3.32 3.297 1.388.824 2.932 1.312 4.63 1.463.175.028.549.043 1.122.043 1.058 0 2.13-.194 3.218-.583v-4.064a6.516 6.516 0 0 1-2.97.881c-.544 0-1-.038-1.37-.114-1.348-.265-2.446-.876-3.29-1.832-.874-.957-1.311-2.075-1.311-3.354 0-1.364.466-2.543 1.398-3.538.97-.985 2.155-1.577 3.553-1.776.641-.076 1.034-.114 1.18-.114.767 0 1.703.284 2.81.853v-3.695c-1.184-.482-2.592-.724-4.223-.724M4.849 16.468c-.941 0-1.81.27-2.607.81-.281.17-.567.398-.859.682C.464 18.904.004 20.035 0 21.354v.032c.004 1.31.464 2.433 1.383 3.366.438.408.884.72 1.34.938a4.52 4.52 0 0 0 2.126.526h16.514l-12.8-8.412a33.38 33.38 0 0 0-.86-.526 6.274 6.274 0 0 0-.961-.511c-.533-.2-1.165-.299-1.893-.299m37.76 0c-.729 0-1.355.1-1.878.299a5.28 5.28 0 0 0-.977.511c-.038.02-.325.194-.858.526l-12.8 8.412h16.513c.99 0 1.917-.303 2.781-.91a7.95 7.95 0 0 0 .684-.554l.132-.142a4.627 4.627 0 0 0 1.107-1.947c.077-.274.12-.502.13-.682.02-.133.03-.336.03-.61 0-1.1-.306-2.047-.918-2.842a4.404 4.404 0 0 0-.48-.569 4.809 4.809 0 0 0-.89-.682c-.27-.208-.634-.398-1.09-.568a4.789 4.789 0 0 0-1.486-.242M9.229 6.29c-.364 0-.74.035-1.133.105-.805.161-1.485.46-2.039.895-.252.208-.47.417-.655.625a11.75 11.75 0 0 0-.378.484c-.32.445-.548.885-.684 1.321-.234.72-.272 1.477-.117 2.273.156.72.388 1.322.7 1.805.329.52.761.952 1.295 1.293l14.417 9.62-6.7-14.99c-.261-.635-.5-1.11-.712-1.422l-.32-.384a4.837 4.837 0 0 0-.7-.625 2.472 2.472 0 0 1-.378-.256c-.763-.496-1.629-.744-2.596-.744m28.986 0c-.966 0-1.827.249-2.581.744-.175.114-.301.2-.38.256a6.33 6.33 0 0 0-.684.625 4.056 4.056 0 0 0-.32.384c-.291.435-.602 1.061-.932 1.875L26.824 24.71l14.401-9.62a4.555 4.555 0 0 0 1.311-1.292l.073-.128c.155-.246.3-.573.437-.98.087-.246.15-.478.189-.697a5.28 5.28 0 0 0 .102-1.094c-.039-.871-.335-1.705-.889-2.5a11.75 11.75 0 0 0-.378-.484 4.515 4.515 0 0 0-2.723-1.52 6.467 6.467 0 0 0-1.132-.105M18.345 0h-.03a4.666 4.666 0 0 0-1.22.17 8.3 8.3 0 0 0-.83.285c-1.261.549-2.125 1.42-2.591 2.614l-.073.199c-.437 1.25-.403 2.42.102 3.51l7.048 15.828 2.344-15.984c.146-.9.205-1.578.175-2.032-.01-.38-.102-.82-.277-1.322a19.616 19.616 0 0 1-.175-.483C22.295 1.64 21.353.81 19.994.298a1.82 1.82 0 0 0-.437-.128A4.586 4.586 0 0 0 18.346 0m10.798 0h-.032a4.576 4.576 0 0 0-1.21.17 2.457 2.457 0 0 0-.453.128c-1.34.512-2.276 1.34-2.81 2.487l-.204.483a4.603 4.603 0 0 0-.233 2.088v.1h1.34c.408.029.645.09.713.185.098.094-.083.242-.538.44l-.758.54c-.145.123-.261.346-.35.668a2.398 2.398 0 0 0-.029.625l.016.285 2.096 14.407L33.77 6.777c.495-1.088.523-2.258.087-3.51l-.087-.198c-.476-1.184-1.335-2.055-2.578-2.614a8.232 8.232 0 0 0-.83-.285A4.665 4.665 0 0 0 29.144 0" id="nbc"/></g></g></g></g></g></svg>