<svg width="103" height="34" xmlns="http://www.w3.org/2000/svg"><g id="Page-1" stroke="none" stroke-width="1" fill="none" fill-rule="evenodd"><g id="02---Menu-Hover-Borrower" transform="translate(-903 -734)"><g id="Press-Strip" transform="translate(47 727)"><g id="logo/press/npr" transform="translate(857 8)"><g id="NPR"><path d="M100.068 1.816c.306 0 .608-.01.608-.352 0-.281-.237-.347-.482-.347h-.456v.699h.33zm-.33 1.106h-.248V.907h.775c.456 0 .66.196.66.557 0 .356-.237.516-.508.562l.601.896h-.291l-.57-.896h-.42v.896zm-1.09-1.009c0 .835.63 1.496 1.477 1.496.845 0 1.475-.66 1.475-1.496 0-.833-.63-1.494-1.475-1.494-.848 0-1.476.66-1.476 1.494zm3.226 0c0 .98-.76 1.745-1.75 1.745a1.724 1.724 0 0 1-1.75-1.745c0-.978.762-1.743 1.75-1.743.99 0 1.75.765 1.75 1.743z" id="Fill-1" fill="#9C9C9C"/><path d="M.498 31.932h31.95V.111H.498v31.821zm31.95 0h31.948V.111H32.448v31.821zm31.882 0h31.95V.111H64.33v31.821z" id="Stroke-2" stroke="#9C9C9C" stroke-width="1.344"/><path d="M19.577 24.138v-9.389c0-1.386-.268-2.397-.804-3.036-.535-.635-1.41-.955-2.624-.955-.56 0-1.16.157-1.797.47-.637.313-1.135.705-1.493 1.168v11.742H9.041V7.826h2.753l.703 1.521c1.04-1.198 2.574-1.797 4.601-1.797 1.944 0 3.483.58 4.609 1.743 1.125 1.158 1.69 2.78 1.69 4.855v9.99h-3.82" id="Fill-4" fill="#9C9C9C"/><path d="M48.12 24.46c2.497 0 4.466-.72 5.911-2.162 1.442-1.439 2.162-3.497 2.162-6.162 0-5.723-2.608-8.586-7.828-8.586-1.398 0-2.576.458-3.533 1.37V7.826h-3.821v22.682h3.821v-6.765c.989.476 2.083.717 3.287.717zm-.85-13.657c1.757 0 3.018.393 3.78 1.178.76.785 1.14 2.138 1.14 4.063 0 1.8-.383 3.12-1.148 3.956-.768.833-2.03 1.252-3.787 1.252-.925 0-1.733-.278-2.423-.836v-8.55c.71-.706 1.523-1.063 2.438-1.063z" id="Fill-5" fill="#9C9C9C"/><path d="M84.598 11.4a4.114 4.114 0 0 0-2.237-.642c-.88 0-1.664.4-2.349 1.199-.685.8-1.025 1.775-1.025 2.928v9.253h-3.82V7.826h3.82v1.558c1.065-1.223 2.478-1.834 4.243-1.834 1.296 0 2.29.199 2.98.594L84.597 11.4" id="Fill-6" fill="#9C9C9C"/></g></g></g></g></g></svg>