<svg width="140" height="48" xmlns="http://www.w3.org/2000/svg"><g id="Page-1" stroke="none" stroke-width="1" fill="none" fill-rule="evenodd"><g id="02---Menu-Hover-Borrower" transform="translate(-379 -727)" fill="#9C9C9C"><g id="Press-Strip" transform="translate(47 727)"><g id="logo/press/reuters" transform="translate(332)"><g id="Reuters"><path d="M71.33 30.32h-2.06c-.184 0-.252-.17-.336-.336l-2.43-4.087h-.373c-.44 0-1.803-.048-2.192-.066v4.153c0 .184-.136.337-.32.337h-1.69a.338.338 0 0 1-.334-.337V18.939c0-.338.2-.457.54-.503.877-.136 2.763-.22 3.996-.22 2.597 0 4.996.928 4.996 3.81v.151c0 1.783-.893 2.761-2.277 3.297l2.647 4.51c.035.05.035.098.035.136 0 .113-.068.2-.202.2zm-2.53-8.295c0-1.264-.982-1.803-2.67-1.803-.354 0-1.888.034-2.19.067v3.652c.268.018 1.9.051 2.19.051 1.737 0 2.67-.332 2.67-1.815v-.152zm7.23 4.976c0 1.413.053 1.45 1.329 1.45h4.27c.186 0 .338.15.338.336v1.077c0 .237-.086.321-.337.354-.54.085-1.64.236-3.646.236-2.8 0-4.283.018-4.283-3.453V21.67c0-3.472 1.483-3.453 4.283-3.453 2.007 0 3.106.153 3.646.235.25.031.337.118.337.356v1.076a.34.34 0 0 1-.337.34h-4.271c-1.276 0-1.33.036-1.33 1.446v1.543h5.399a.34.34 0 0 1 .337.337v1.217a.338.338 0 0 1-.337.337H76.03V27zm13.51 3.453c-2.713 0-5.05-1.18-5.05-4.77V18.67c0-.189.154-.32.338-.32h1.667c.188 0 .338.131.338.32v7.012c0 1.922.89 2.834 2.707 2.834 1.824 0 2.712-.912 2.712-2.834V18.67c0-.189.152-.32.336-.32h1.67c.187 0 .34.131.34.32v7.012c0 3.59-2.34 4.77-5.058 4.77zm16.149-10.151h-3.366v9.68a.342.342 0 0 1-.34.338h-1.669a.34.34 0 0 1-.338-.337v-9.681h-3.368c-.183 0-.334-.117-.334-.301V18.67c0-.189.151-.32.334-.32h9.081c.182 0 .333.131.333.32V20c0 .185-.15.302-.333.302zm22.906 10.018h-2.06c-.184 0-.25-.17-.335-.337l-2.43-4.087h-.376c-.436 0-1.802-.048-2.192-.066v4.153c0 .184-.133.337-.318.337H119.2a.34.34 0 0 1-.338-.337V18.939c0-.338.2-.457.538-.503.876-.136 2.766-.22 3.995-.22 2.599 0 4.996.928 4.996 3.81v.151c0 1.783-.895 2.761-2.277 3.297l2.651 4.51c.033.05.033.098.033.136 0 .113-.068.2-.202.2zm-2.53-8.296c0-1.264-.983-1.803-2.671-1.803-.353 0-1.888.034-2.192.067v3.652c.273.018 1.909.051 2.192.051 1.74 0 2.672-.332 2.672-1.815v-.152zm8.967 8.439c-1.491 0-3.002-.258-3.812-.445-.167-.033-.32-.15-.32-.335V28.47c0-.185.153-.322.32-.322h.034c.675.085 2.254.303 3.813.303 1.5 0 1.96-.535 1.96-1.513 0-1.263-3.02-1.962-4.495-2.568-1.465-.607-1.987-1.77-1.987-2.946 0-1.855 1.494-3.204 4.632-3.204 1.607 0 3.078.305 3.652.443.17.034.303.153.303.319v1.247c0 .168-.116.305-.288.305h-.032c-1.113-.102-2.268-.306-3.734-.306-1.25 0-2.186.436-2.186 1.196 0 .554.635 1.064 1.385 1.359.747.297 1.73.68 2.849 1.129 1.424.574 2.344 1.41 2.344 3.026 0 1.702-1.062 3.525-4.438 3.525zM110.09 27c0 1.413.051 1.45 1.33 1.45h4.272c.181 0 .335.15.335.336v1.077c0 .237-.086.321-.335.354-.543.085-1.64.236-3.647.236-2.804 0-4.286.018-4.286-3.453v-5.33c0-3.472 1.482-3.453 4.286-3.453 2.008 0 3.104.153 3.647.235.249.031.335.118.335.356v1.076c0 .184-.154.34-.335.34h-4.272c-1.279 0-1.33.036-1.33 1.446v1.543h5.396c.188 0 .336.155.336.337v1.217a.335.335 0 0 1-.336.337h-5.396V27z" id="Fill-1"/><path d="M35.667 15.37a1.633 1.633 0 0 1-2.306.062 1.621 1.621 0 0 1-.065-2.303 1.626 1.626 0 0 1 2.305-.072c.656.62.686 1.648.066 2.314zm-16.271-3.71a.814.814 0 0 0-1.14.036.806.806 0 0 0 .032 1.135.806.806 0 1 0 1.108-1.17zm4.079-1.548a.993.993 0 1 0-1.363 1.449.993.993 0 0 0 1.363-1.45zm4.375-.319a1.267 1.267 0 0 0-1.784.052 1.262 1.262 0 0 0 .058 1.784 1.26 1.26 0 1 0 1.726-1.836zm4.141 1.058a1.416 1.416 0 0 0-2.007.058 1.419 1.419 0 1 0 2.065 1.947 1.42 1.42 0 0 0-.058-2.005zm-16.053 3.527a.603.603 0 0 0-.85.025.595.595 0 0 0 .023.846.601.601 0 0 0 .827-.87zM36.83 29.171a.806.806 0 1 0 1.174 1.102.806.806 0 0 0-.034-1.138.81.81 0 0 0-1.14.036zm1.032-4.153a.993.993 0 1 0 1.405-.044.997.997 0 0 0-1.405.044zm-.318-4.376a1.262 1.262 0 1 0 1.839 1.728 1.256 1.256 0 0 0-.055-1.781 1.265 1.265 0 0 0-1.784.053zm-1.528-4.053a1.418 1.418 0 1 0 2.067 1.946 1.42 1.42 0 0 0-2.066-1.945zm-1.404 16.185a.599.599 0 0 0 .027.847c.243.224.62.217.845-.029a.59.59 0 0 0-.023-.843.597.597 0 0 0-.849.025zm-17.33 2.097a1.632 1.632 0 1 0-2.375-2.24 1.632 1.632 0 0 0 2.375 2.24zm-3.535-16.044a.805.805 0 0 0-1.173-1.104.797.797 0 0 0 .036 1.136.808.808 0 0 0 1.137-.032zm-1.036 4.156a.993.993 0 1 0-1.448-1.361.99.99 0 0 0 .041 1.4 1 1 0 0 0 1.407-.039zm.319 4.373a1.264 1.264 0 0 0-.053-1.788 1.264 1.264 0 1 0 .052 1.788zm1.525 4.055a1.416 1.416 0 1 0-2.062-1.945 1.417 1.417 0 0 0 .054 2.006 1.429 1.429 0 0 0 2.008-.061zm16.625 4.926a.805.805 0 0 0 1.103-1.17.803.803 0 1 0-1.103 1.17zm-4.081 1.547a.996.996 0 0 0 1.404-.044.987.987 0 0 0-.039-1.4 1 1 0 0 0-1.409.042.995.995 0 0 0 .044 1.402zm-4.379.317a1.26 1.26 0 0 0 1.784-.049c.48-.507.46-1.307-.05-1.782a1.27 1.27 0 0 0-1.789.05 1.26 1.26 0 0 0 .055 1.781zm-4.131-1.053a1.418 1.418 0 1 0-.063-2.002 1.413 1.413 0 0 0 .063 2.002zm10.753-22.423a1.265 1.265 0 0 1-1.576.851 1.26 1.26 0 0 1-.86-1.575 1.271 1.271 0 1 1 2.436.724zm-12.185 2.996a.637.637 0 0 0-.78.428c-.098.33.095.68.428.774a.626.626 0 0 0 .353-1.202zm2.205-2.422a.773.773 0 0 0-.959.526.773.773 0 1 0 1.487.436.779.779 0 0 0-.528-.962zm2.825-1.707a.99.99 0 0 0-1.224.664.984.984 0 0 0 .67 1.22.98.98 0 0 0 1.221-.664.993.993 0 0 0-.667-1.22zm3.128-.7a1.105 1.105 0 0 0-1.375.75c-.175.587.16 1.197.748 1.373a1.112 1.112 0 0 0 1.374-.746 1.104 1.104 0 0 0-.747-1.377zm-9.55 7.828a.468.468 0 0 0-.579.315.473.473 0 0 0 .315.587.47.47 0 0 0 .264-.902zm18.98 2.819c-.1.329.09.681.425.777a.626.626 0 1 0 .355-1.202.63.63 0 0 0-.78.425zm-.725-3.135a.771.771 0 0 0 .527.965.771.771 0 0 0 .96-.526.77.77 0 0 0-.524-.958.773.773 0 0 0-.963.52zm-1.709-2.82a.982.982 0 0 0 .665 1.223.986.986 0 0 0 1.222-.668.972.972 0 0 0-.667-1.215.986.986 0 0 0-1.22.66zm-2.404-2.19a1.105 1.105 0 1 0 2.124.62 1.1 1.1 0 0 0-.746-1.372 1.114 1.114 0 0 0-1.378.752zm4.584 11.308a.472.472 0 0 0 .314.582.465.465 0 0 0 .582-.319.466.466 0 0 0-.316-.582.473.473 0 0 0-.58.32zm-10.819 7.303a1.27 1.27 0 0 0-.862-1.582 1.271 1.271 0 1 0-.714 2.441 1.276 1.276 0 0 0 1.576-.86zM15.83 24.46a.627.627 0 0 0-.422-.778.636.636 0 0 0-.782.427c-.1.33.095.675.427.774.33.1.678-.088.777-.423zm.728 3.134a.765.765 0 0 0-.523-.955.76.76 0 0 0-.96.52.773.773 0 1 0 1.483.435zm1.71 2.823a.993.993 0 0 0-.672-1.226.984.984 0 0 0-1.22.67.977.977 0 0 0 .666 1.22.986.986 0 0 0 1.226-.664zm2.403 2.193a1.108 1.108 0 0 0-.753-1.374 1.101 1.101 0 0 0-1.37.753 1.1 1.1 0 0 0 .749 1.369 1.113 1.113 0 0 0 1.374-.748zm12.744-2.334a.632.632 0 0 0 .784-.424.635.635 0 0 0-.425-.782.632.632 0 0 0-.78.427.628.628 0 0 0 .421.78zm-2.2 2.425a.774.774 0 0 0 .439-1.486.784.784 0 0 0-.968.525.783.783 0 0 0 .529.961zm-2.824 1.71a.983.983 0 1 0 .557-1.887.985.985 0 1 0-.557 1.887zm-3.127.696a1.097 1.097 0 0 0 1.372-.745 1.106 1.106 0 0 0-2.123-.622 1.105 1.105 0 0 0 .751 1.367zm-2.59-18.027a.99.99 0 0 1-.397 1.337.994.994 0 0 1-1.342-.405.987.987 0 0 1 1.74-.932zm-4.882 7.72a.586.586 0 0 0-.232.79.573.573 0 0 0 .788.229.57.57 0 0 0 .236-.784.59.59 0 0 0-.792-.234zm-.098-2.372a.676.676 0 0 0-.271.912.68.68 0 0 0 .92.277.685.685 0 0 0 .275-.92.679.679 0 0 0-.924-.269zm.617-2.283a.778.778 0 0 0-.318 1.047.78.78 0 0 0 1.05.313.773.773 0 0 0 .317-1.05.778.778 0 0 0-1.05-.31zm1.258-1.977a.866.866 0 0 0-.355 1.184c.229.42.75.579 1.172.351a.865.865 0 0 0 .36-1.178.868.868 0 0 0-1.177-.357zm-.964 8.881a.485.485 0 0 0-.196.66c.128.233.418.32.66.197a.492.492 0 0 0 .193-.66.488.488 0 0 0-.657-.197zm11.233-8.082a.593.593 0 0 0 .794.237.59.59 0 0 0 .234-.792.58.58 0 0 0-.787-.234.582.582 0 0 0-.241.789zm-1.973-1.256c.178.33.596.45.916.27a.67.67 0 0 0 .277-.916.68.68 0 0 0-.915-.277.686.686 0 0 0-.278.923zm-2.282-.609c.2.373.669.514 1.043.309a.772.772 0 0 0 .32-1.047.765.765 0 0 0-1.05-.309.771.771 0 0 0-.313 1.047zm-2.38.093a.875.875 0 0 0 1.183.359.873.873 0 1 0-.832-1.536.87.87 0 0 0-.35 1.177zm8.117 3.548c.125.235.42.321.65.194a.47.47 0 0 0 .195-.65.49.49 0 0 0-.657-.207.499.499 0 0 0-.188.663zm-1.677 9.233a.985.985 0 0 0-1.343-.401.977.977 0 0 0-.395 1.336 1 1 0 0 0 1.34.401.992.992 0 0 0 .398-1.336zm-8.906-.957a.586.586 0 0 0-.785-.232.575.575 0 0 0-.236.782c.148.286.501.39.785.231a.575.575 0 0 0 .236-.78zm1.975 1.256a.678.678 0 1 0-.276.924c.33-.184.453-.6.276-.924zm2.285.61c-.198-.374-.673-.507-1.054-.313a.777.777 0 0 0 .738 1.366.769.769 0 0 0 .316-1.053zm2.377-.095a.878.878 0 0 0-1.184-.355.863.863 0 0 0-.341 1.182.859.859 0 0 0 1.174.35.865.865 0 0 0 .351-1.177zm5.402-7.597a.6.6 0 0 0 .245-.795.582.582 0 0 0-.786-.235.576.576 0 0 0-.237.789.581.581 0 0 0 .778.24zm.11 2.37a.675.675 0 0 0 .268-.918.674.674 0 0 0-.915-.275.69.69 0 0 0-.277.924.691.691 0 0 0 .924.268zm-.62 2.283a.78.78 0 0 0 .322-1.052.779.779 0 0 0-1.37.74.78.78 0 0 0 1.047.312zm-1.251 1.968a.868.868 0 0 0 .352-1.178.87.87 0 1 0-.352 1.177zM47.92 26.53a2.532 2.532 0 0 1-2.53-2.534 2.524 2.524 0 0 1 2.535-2.527A2.527 2.527 0 0 1 50.457 24a2.535 2.535 0 0 1-2.537 2.53zM37.974 4.7a1.392 1.392 0 0 0-1.076-1.655 1.396 1.396 0 0 0-.581 2.73 1.397 1.397 0 0 0 1.657-1.074zm4.992 3.57a1.69 1.69 0 0 0-1.407-1.934 1.69 1.69 0 0 0-1.938 1.406 1.69 1.69 0 0 0 1.408 1.938 1.695 1.695 0 0 0 1.937-1.41zm4.022 4.641a2.106 2.106 0 0 0-1.878-2.32 2.114 2.114 0 0 0-2.322 1.88 2.11 2.11 0 1 0 4.2.44zm2.495 5.353a2.32 2.32 0 0 0-2.201-2.442 2.322 2.322 0 0 0-2.449 2.199 2.329 2.329 0 1 0 4.65.243zM26.304 1.385c0-.564-.456-1.014-1.019-1.014a1.014 1.014 0 1 0 0 2.029c.563 0 1.02-.453 1.02-1.016zm10.013 40.838a1.399 1.399 0 1 0 .578 2.736 1.399 1.399 0 0 0-.578-2.736zm4.712-3.903a1.69 1.69 0 0 0-1.408 1.936 1.689 1.689 0 0 0 1.937 1.406 1.692 1.692 0 1 0-.53-3.342zm3.638-5.11a2.109 2.109 0 1 0 .441 4.195 2.11 2.11 0 0 0-.441-4.195zm2.366-5.68a2.328 2.328 0 0 0-2.2 2.445 2.32 2.32 0 0 0 2.449 2.2 2.32 2.32 0 0 0 2.2-2.443 2.331 2.331 0 0 0-2.45-2.202zM25.285 45.6a1.017 1.017 0 1 0 0 2.032 1.017 1.017 0 1 0 0-2.032zM2.65 26.53a2.533 2.533 0 0 0 2.528-2.534A2.524 2.524 0 0 0 2.65 21.47a2.53 2.53 0 1 0 0 5.06zM14.254 5.775a1.394 1.394 0 0 0 1.076-1.657 1.393 1.393 0 0 0-1.657-1.073 1.396 1.396 0 1 0 .58 2.73zM9.544 9.68a1.693 1.693 0 1 0-.53-3.345 1.693 1.693 0 0 0 .53 3.345zM5.9 14.79a2.11 2.11 0 1 0-.441-4.199 2.105 2.105 0 0 0-1.879 2.321 2.11 2.11 0 0 0 2.32 1.879zm-2.363 5.68a2.33 2.33 0 0 0 2.202-2.447 2.32 2.32 0 0 0-2.45-2.2 2.324 2.324 0 0 0-2.204 2.443 2.335 2.335 0 0 0 2.452 2.204zm9.06 22.828a1.398 1.398 0 1 0 2.734.587 1.398 1.398 0 0 0-2.734-.587zm-4.99-3.57a1.687 1.687 0 0 0 1.406 1.935 1.691 1.691 0 1 0 .53-3.342 1.691 1.691 0 0 0-1.935 1.407zm-4.024-4.64a2.103 2.103 0 0 0 1.877 2.317 2.105 2.105 0 0 0 2.32-1.876A2.112 2.112 0 0 0 5.9 33.21a2.106 2.106 0 0 0-2.317 1.878zm-2.498-5.355a2.326 2.326 0 0 0 2.204 2.442 2.322 2.322 0 0 0 2.451-2.2 2.33 2.33 0 0 0-4.655-.242zM30.861 44.79a1.09 1.09 0 1 0 .565 2.107 1.092 1.092 0 0 0-.565-2.107zm-11.153 0a1.09 1.09 0 1 0-.565 2.107 1.093 1.093 0 0 0 1.34-.771 1.092 1.092 0 0 0-.775-1.336zM32.202 2.438a1.087 1.087 0 0 0-.776-1.334 1.09 1.09 0 0 0-.563 2.105 1.093 1.093 0 0 0 1.339-.77zm-11.718-.565a1.09 1.09 0 0 0-1.34-.769c-.582.154-.93.75-.773 1.332a1.094 1.094 0 0 0 2.113-.563zm21.814 16.952a1.982 1.982 0 0 1-2.6-1.036 1.972 1.972 0 0 1 1.036-2.596 1.974 1.974 0 0 1 2.598 1.032 1.979 1.979 0 0 1-1.034 2.6zM28.408 6.247a1.087 1.087 0 0 0-1.283-.857 1.09 1.09 0 1 0 1.283.856zm4.686 1.017a1.32 1.32 0 0 0-1.608-.953 1.318 1.318 0 0 0-.954 1.607c.18.707.902 1.135 1.609.951a1.32 1.32 0 0 0 .953-1.605zm4.32 2.083a1.643 1.643 0 0 0-2.064-1.08 1.645 1.645 0 0 0-1.084 2.062 1.652 1.652 0 0 0 2.066 1.08 1.647 1.647 0 0 0 1.082-2.062zm3.445 3.069a1.814 1.814 0 0 0-2.333-1.074 1.812 1.812 0 0 0-1.077 2.334 1.819 1.819 0 0 0 3.41-1.26zM19.017 7.475a.793.793 0 0 0-1.046-.416.791.791 0 0 0-.415 1.044c.174.4.643.584 1.045.412a.791.791 0 0 0 .416-1.04zm19.818 26.183a1.091 1.091 0 1 0 1.264 1.781 1.091 1.091 0 0 0-1.264-1.781zm2.17-4.255a1.322 1.322 0 1 0 1.414 2.235 1.322 1.322 0 0 0-1.413-2.235zm1.028-4.787a1.648 1.648 0 0 0-.63 2.244 1.648 1.648 0 0 0 2.244.625 1.647 1.647 0 0 0-1.614-2.87v.001zm-.063-4.802a1.82 1.82 0 0 0-.821 2.433 1.814 1.814 0 0 0 2.437.82 1.81 1.81 0 0 0 .821-2.432 1.825 1.825 0 0 0-2.437-.82zm-9.998 19.673a.792.792 0 1 0 .628 1.456.793.793 0 1 0-.628-1.456zM9.84 32.808a1.977 1.977 0 1 0-1.57-3.628 1.977 1.977 0 0 0 1.57 3.628zm1.896-18.467a1.089 1.089 0 1 0-1.26-1.778 1.087 1.087 0 0 0-.262 1.522c.35.488 1.031.606 1.522.256zm-2.17 4.256a1.323 1.323 0 1 0-1.412-2.236 1.323 1.323 0 0 0 1.413 2.236zm-1.029 4.788a1.645 1.645 0 1 0-1.615-2.87 1.639 1.639 0 0 0-.63 2.24 1.649 1.649 0 0 0 2.245.63zm.062 4.802a1.815 1.815 0 0 0 .823-2.434 1.814 1.814 0 0 0-2.439-.821A1.817 1.817 0 1 0 8.6 28.187zm13.562 13.57a1.091 1.091 0 1 0 2.14-.426 1.091 1.091 0 0 0-2.14.426zm-4.681-1.02c.179.71.898 1.133 1.607.953a1.32 1.32 0 1 0-.656-2.56 1.32 1.32 0 0 0-.951 1.607zm-4.324-2.083a1.64 1.64 0 0 0 2.064 1.078 1.64 1.64 0 0 0 1.085-2.06 1.653 1.653 0 0 0-2.069-1.082 1.646 1.646 0 0 0-1.08 2.064zM9.71 35.582a1.813 1.813 0 0 0 2.336 1.074 1.816 1.816 0 0 0-1.26-3.405 1.818 1.818 0 0 0-1.076 2.331zm26.006 1.602a.855.855 0 0 0-.139 1.196.854.854 0 0 0 1.341-1.059.859.859 0 0 0-1.202-.137zm-7.995 3.444a.855.855 0 0 0-.72.967.85.85 0 0 0 .968.718.852.852 0 0 0-.248-1.685zm-4.15-34.223a.852.852 0 0 0-.97-.717.852.852 0 1 0 .248 1.684c.465-.07.79-.5.722-.967zM14.994 9.62z" id="Fill-2"/></g></g></g></g></g></svg>