<?xml version="1.0"?>
<svg xmlns="http://www.w3.org/2000/svg" height="512px" viewBox="-24 0 480 480" width="512px" class=""><g><path d="m360 352c0 8.835938-7.164062 16-16 16s-16-7.164062-16-16 7.164062-16 16-16 16 7.164062 16 16zm0 0" data-original="#000000" class="active-path" data-old_color="#000000" fill="#21E4C1"/><path d="m408 272h-8v-40c-.015625-13.25-10.75-23.984375-24-24h-352c-13.25.015625-23.984375 10.75-24 24v224c.015625 13.25 10.75 23.984375 24 24h352c13.25-.015625 23.984375-10.75 24-24v-56h8c13.25-.015625 23.984375-10.75 24-24v-80c-.015625-13.25-10.75-23.984375-24-24zm-24 184c-.003906 4.414062-3.585938 7.996094-8 8h-352c-4.414062-.003906-7.996094-3.585938-8-8v-224c.003906-4.414062 3.585938-7.996094 8-8h352c4.414062.003906 7.996094 3.585938 8 8v72h-64c-13.25.015625-23.984375 10.75-24 24v48c.015625 13.25 10.75 23.984375 24 24h64zm32-80c-.003906 4.414062-3.585938 7.996094-8 8h-88c-4.414062-.003906-7.996094-3.585938-8-8v-48c.003906-4.414062 3.585938-7.996094 8-8h96zm-16-72v-16h8c4.414062.003906 7.996094 3.585938 8 8v8zm0 0" data-original="#000000" class="active-path" data-old_color="#000000" fill="#21E4C1"/><path d="m232 63.363281c24.523438-3.578125 43.785156-22.839843 47.363281-47.363281h33.273438c3.578125 24.523438 22.839843 43.785156 47.363281 47.363281v128.636719h16v-168c-.015625-13.25-10.75-23.984375-24-24h-112c-13.25.015625-23.984375 10.75-24 24v168h16zm120-47.363281c4.414062.003906 7.996094 3.585938 8 8v23.195312c-15.695312-3.234374-27.960938-15.5-31.195312-31.195312zm-120 8c.003906-4.414062 3.585938-7.996094 8-8h23.195312c-3.234374 15.695312-15.5 27.960938-31.195312 31.195312zm0 0" data-original="#000000" class="active-path" data-old_color="#000000" fill="#21E4C1"/><path d="m248 128c0 26.507812 21.492188 48 48 48s48-21.492188 48-48-21.492188-48-48-48c-26.496094.027344-47.972656 21.503906-48 48zm80 0c0 17.671875-14.328125 32-32 32s-32-14.328125-32-32 14.328125-32 32-32c17.664062.019531 31.980469 14.335938 32 32zm0 0" data-original="#000000" class="active-path" data-old_color="#000000" fill="#21E4C1"/><path d="m136 111.363281c24.523438-3.578125 43.785156-22.839843 47.363281-47.363281h16.636719v-16h-56c-13.25.015625-23.984375 10.75-24 24v120h16zm0-39.363281c.003906-4.414062 3.585938-7.996094 8-8h23.195312c-3.234374 15.695312-15.5 27.960938-31.195312 31.195312zm0 0" data-original="#000000" class="active-path" data-old_color="#000000" fill="#21E4C1"/><path d="m40 159.363281c24.523438-3.578125 43.785156-22.839843 47.363281-47.363281h16.636719v-16h-56c-13.25.015625-23.984375 10.75-24 24v72h16zm0-39.363281c.003906-4.414062 3.585938-7.996094 8-8h23.195312c-3.234374 15.695312-15.5 27.960938-31.195312 31.195312zm0 0" data-original="#000000" class="active-path" data-old_color="#000000" fill="#21E4C1"/><path d="m152 192h16c.019531-17.664062 14.335938-31.980469 32-32v-16c-26.496094.027344-47.972656 21.503906-48 48zm0 0" data-original="#000000" class="active-path" data-old_color="#000000" fill="#21E4C1"/></g> </svg>
